{"title":"My Week with Marilyn (2011)1080p BRRip [MKV 6ch AC3][RoB]PR3DATO","uid":7052020,"size":2514206736,"categoryP":"video","categoryS":"hd___movies","magnet":"?xt=urn:btih:95b19a8f61ffe2a104609e40e1a815c38d2df9d3&amp;dn=My+Week+with+Marilyn+%282011%291080p+BRRip+%5BMKV+6ch+AC3%5D%5BRoB%5DPR3DATO&amp;tr=udp%3A%2F%2Ftracker.openbittorrent.com%3A80&amp;tr=udp%3A%2F%2Fopen.demonii.com%3A1337&amp;tr=udp%3A%2F%2Ftracker.coppersurfer.tk%3A6969&amp;tr=udp%3A%2F%2Fexodus.desync.com%3A6969","seeders":0,"leechers":2,"uploader":"MScope40","files":-1,"time":1329989131,"description":"General\nUnique ID : 168348648403719580577546155723716462494 (0x7EA6C532C2870C1E037BA147C20E879E)\nComplete name : C:UsersRobDocumentsMY WEEK WITH MARILYN (2011) 1080p BRRip [MKV AC3 6ch][RoB]PR3DATOR RGMY WEEK WITH MARILYN (2011) 1080p BRRip [MKV 6ch AC3][RoB]PR3DATOR RG.mkv\nFormat : Matroska\nFormat version : Version 2\nFile size : 2.30 GiB\nDuration : 1h 38mn\nOverall bit rate : 3 324 Kbps\nWriting application : Lavf51.12.1\nWriting library : Lavf51.12.1\n\nVideo\nID : 1\nFormat : AVC\nFormat/Info : Advanced Video Codec\nFormat profile : &lt;a class=&quot;__cf_email__&quot; href=&quot;/cdn-cgi/l/email-protection&quot; data-cfemail=&quot;b4f6d5c7d1d8dddad1f4f8809a84&quot;&gt;[email&amp;#160;protected]&lt;/a&gt;&lt;script cf-hash='f9e31' type=&quot;text/javascript&quot;&gt;\n/* &lt;![CDATA[ */!function(){try{var t=&quot;currentScript&quot;in document?document.currentScript:function(){for(var t=document.getElementsByTagName(&quot;script&quot;),e=t.length;e--;)if(t[e].getAttribute(&quot;cf-hash&quot;))return t[e]}();if(t&amp;&amp;t.previousSibling){var e,r,n,i,c=t.previousSibling,a=c.getAttribute(&quot;data-cfemail&quot;);if(a){for(e=&quot;&quot;,r=parseInt(a.substr(0,2),16),n=2;a.length-n;n+=2)i=parseInt(a.substr(n,2),16)^r,e+=String.fromCharCode(i);e=document.createTextNode(e),c.parentNode.replaceChild(e,c)}}}catch(u){}}();/* ]]&gt; */&lt;/script&gt;\nFormat settings, CABAC : No\nFormat settings, ReFrames : 5 frames\nCodec ID : V_MPEG4/ISO/AVC\nDuration : 1h 38mn\nBit rate : 2 937 Kbps\nWidth : 1 920 pixels\nHeight : 816 pixels\nDisplay aspect ratio : 2.35:1\nFrame rate mode : Variable\nFrame rate : 23.976 fps\nColor space : YUV\nChroma subsampling : 4:2:0\nBit depth : 8 bits\nScan type : Progressive\nBits/(Pixel*Frame) : 0.078\nStream size : 2.03 GiB (88%)\nLanguage : English\n\nAudio\nID : 2\nFormat : AC-3\nFormat/Info : Audio Coding 3\nMode extension : CM (complete main)\nCodec ID : A_AC3\nDuration : 1h 38mn\nBit rate mode : Constant\nBit rate : 320 Kbps\nChannel(s) : 6 channels\nChannel positions : Front: L C R, Side: L R, LFE\nSampling rate : 44.1 KHz\nBit depth : 16 bits\nCompression mode : Lossy\nStream size : 226 MiB (10%)\nLanguage : English\n &lt;a href=&quot;\nhttp://img215.imageshack.us/img215/5696/myweekwithmarilyn201110.jpg&quot; rel=&quot;nofollow&quot; target=&quot;_NEW&quot;&gt;\nhttp://img215.imageshack.us/img215/5696/myweekwithmarilyn201110.jpg&lt;/a&gt;\n &lt;a href=&quot;\nhttp://img593.imageshack.us/img593/5696/myweekwithmarilyn201110.jpg&quot; rel=&quot;nofollow&quot; target=&quot;_NEW&quot;&gt;\nhttp://img593.imageshack.us/img593/5696/myweekwithmarilyn201110.jpg&lt;/a&gt;\n &lt;a href=&quot;\nhttp://img163.imageshack.us/img163/5696/myweekwithmarilyn201110.jpg&quot; rel=&quot;nofollow&quot; target=&quot;_NEW&quot;&gt;\nhttp://img163.imageshack.us/img163/5696/myweekwithmarilyn201110.jpg&lt;/a&gt;\n &lt;a href=&quot;\nhttp://img3.imageshack.us/img3/5696/myweekwithmarilyn201110.jpg&quot; rel=&quot;nofollow&quot; target=&quot;_NEW&quot;&gt;\nhttp://img3.imageshack.us/img3/5696/myweekwithmarilyn201110.jpg&lt;/a&gt;\n &lt;a href=&quot;\nhttp://img835.imageshack.us/img835/5696/myweekwithmarilyn201110.jpg&quot; rel=&quot;nofollow&quot; target=&quot;_NEW&quot;&gt;\nhttp://img835.imageshack.us/img835/5696/myweekwithmarilyn201110.jpg&lt;/a&gt;","torrent":{"xt":"urn:btih:95b19a8f61ffe2a104609e40e1a815c38d2df9d3","amp;dn":"My+Week+with+Marilyn+%282011%291080p+BRRip+%5BMKV+6ch+AC3%5D%5BRoB%5DPR3DATO","amp;tr":["udp%3A%2F%2Ftracker.openbittorrent.com%3A80","udp%3A%2F%2Fopen.demonii.com%3A1337","udp%3A%2F%2Ftracker.coppersurfer.tk%3A6969","udp%3A%2F%2Fexodus.desync.com%3A6969"],"infoHash":"95b19a8f61ffe2a104609e40e1a815c38d2df9d3","infoHashBuffer":{"type":"Buffer","data":[149,177,154,143,97,255,226,161,4,96,158,64,225,168,21,195,141,45,249,211]},"announce":[],"urlList":[]}}